<svg viewBox="-8 92 976 246" xmlns="http://www.w3.org/2000/svg" style="display:block; margin:12px auto; max-width:820px; border-radius:8px; overflow:hidden;">
<defs><marker id="arrow" viewBox="0 0 10 10" refX="9" refY="5" markerWidth="6" markerHeight="6" orient="auto-start-reverse"><path d="M 0 0 L 10 5 L 0 10 z" fill="#cbd5e0"/></marker></defs>
<rect x="-8" y="92" width="976" height="246" fill="#1a202c"/>
<rect x="20" y="140" width="80" height="40" rx="4" fill="#2d3748" stroke="#68d391" stroke-width="1.5"/><text x="60.0" y="164.0" fill="#cbd5e0" font-family="sans-serif" font-size="14" text-anchor="middle">x</text>
<rect x="140" y="140" width="120" height="40" rx="4" fill="#2d3748" stroke="#63b3ed" stroke-width="1.5"/><text x="200.0" y="164.0" fill="#cbd5e0" font-family="sans-serif" font-size="12" text-anchor="middle">Encoder q_φ</text>
<rect x="360" y="120" width="80" height="20" rx="4" fill="#2d3748" stroke="#cbd5e0" stroke-width="1.5"/><text x="400.0" y="134.0" fill="#cbd5e0" font-family="sans-serif" font-size="12" text-anchor="middle">μ_φ(x)</text>
<rect x="360" y="180" width="80" height="20" rx="4" fill="#2d3748" stroke="#cbd5e0" stroke-width="1.5"/><text x="400.0" y="194.0" fill="#cbd5e0" font-family="sans-serif" font-size="12" text-anchor="middle">σ_φ(x)</text>
<rect x="600" y="140" width="80" height="40" rx="4" fill="#2d3748" stroke="#63b3ed" stroke-width="1.5"/><text x="640.0" y="164.0" fill="#cbd5e0" font-family="sans-serif" font-size="14" text-anchor="middle">z</text>
<rect x="700" y="140" width="120" height="40" rx="4" fill="#2d3748" stroke="#63b3ed" stroke-width="1.5"/><text x="760.0" y="164.0" fill="#cbd5e0" font-family="sans-serif" font-size="12" text-anchor="middle">Decoder p_θ</text>
<rect x="860" y="140" width="80" height="40" rx="4" fill="#2d3748" stroke="#68d391" stroke-width="1.5"/><text x="900.0" y="164.0" fill="#cbd5e0" font-family="sans-serif" font-size="14" text-anchor="middle">x̂</text>
<circle cx="520" cy="160" r="12" fill="#2d3748" stroke="#f6ad55" stroke-width="1.5"/><text x="520" y="165" fill="#cbd5e0" font-family="sans-serif" font-size="14" font-weight="bold" text-anchor="middle">+</text>
<circle cx="480" cy="200" r="10" fill="#2d3748" stroke="#f6ad55" stroke-width="1.5"/><text x="480" y="205" fill="#cbd5e0" font-family="sans-serif" font-size="13" font-weight="bold" text-anchor="middle">×</text>
<circle cx="520" cy="280" r="14" fill="#2d3748" stroke="#f6ad55" stroke-width="1.5"/><text x="520" y="285" fill="#cbd5e0" font-family="sans-serif" font-size="13" font-weight="bold" text-anchor="middle">ε</text>
<line x1="100" y1="160.0" x2="140" y2="160.0" stroke="#cbd5e0" stroke-width="2" marker-end="url(#arrow)"/>
<line x1="260" y1="160.0" x2="360" y2="130.0" stroke="#cbd5e0" stroke-width="2" marker-end="url(#arrow)"/>
<line x1="260" y1="160.0" x2="360" y2="190.0" stroke="#cbd5e0" stroke-width="2" marker-end="url(#arrow)"/>
<line x1="440" y1="130.0" x2="508" y2="160" stroke="#cbd5e0" stroke-width="2" marker-end="url(#arrow)"/>
<line x1="440" y1="190.0" x2="470" y2="200" stroke="#cbd5e0" stroke-width="2" marker-end="url(#arrow)"/>
<line x1="520" y1="266" x2="480" y2="210" stroke="#cbd5e0" stroke-width="2" marker-end="url(#arrow)"/>
<line x1="480" y1="190" x2="520" y2="172" stroke="#cbd5e0" stroke-width="2" marker-end="url(#arrow)"/>
<line x1="532" y1="160" x2="600" y2="160.0" stroke="#cbd5e0" stroke-width="2" marker-end="url(#arrow)"/>
<line x1="680" y1="160.0" x2="700" y2="160.0" stroke="#cbd5e0" stroke-width="2" marker-end="url(#arrow)"/>
<line x1="820" y1="160.0" x2="860" y2="160.0" stroke="#cbd5e0" stroke-width="2" marker-end="url(#arrow)"/>
<text x="520" y="310" fill="#f6ad55" font-family="sans-serif" font-size="11" font-weight="bold" text-anchor="middle">ε ~ 𝒩(0, I)</text>
<text x="640.0" y="130" fill="#63b3ed" font-family="sans-serif" font-size="12" font-weight="bold" text-anchor="middle">z = μ + σ ⊙ ε</text>
<text x="420.0" y="232" fill="#68d391" font-family="sans-serif" font-size="11" font-weight="normal" text-anchor="middle">gradients flow through deterministic path (μ, σ)</text>
<text x="634" y="284" fill="#4a5568" font-family="sans-serif" font-size="11" font-weight="normal" text-anchor="start">noise is external — not differentiated</text>
</svg>
