<svg xmlns="http://www.w3.org/2000/svg" xmlns:inkscape="http://www.inkscape.org/namespaces/inkscape" viewBox="0 0 417 346" width="417" height="346">
  <rect x="0" y="0" width="417" height="346" fill="white"/>
  <g transform="translate(38.85, 62.70) scale(1.2824)">
<g
     inkscape:label="Layer 1"
     inkscape:groupmode="layer"
     id="layer1"
     transform="translate(-185.09151,356.84324)">
    <g
       transform="matrix(1.4578613,0,0,-1.4578613,-1481.3679,1209.2747)"
       inkscape:label="JMMC_2018_WC_Building_Map"
       id="g4035">
      <g
         transform="matrix(2.0696427,0,0,2.0696427,1235.484,1041.0663)"
         id="g4923">
        <path
           inkscape:connector-curvature="0"
           id="path4925"
           style="fill:#3d2c76;fill-opacity:1;fill-rule:nonzero;stroke:none"
           d="m 0,0 -10.342,6.903 c -1.138,0.761 -1.823,2.04 -1.823,3.41 v 4.791 c 0,0.515 0.418,0.933 0.934,0.933 h 6.129 c 3.17,0 5.739,-2.569 5.739,-5.738 V 0.341 C 0.637,0.014 0.271,-0.182 0,0" />
      </g>
      <g
         transform="matrix(2.0696427,0,0,2.0696427,1236.2257,1035.6454)"
         id="g4927">
        <path
           inkscape:connector-curvature="0"
           id="path4929"
           style="fill:#3d2c76;fill-opacity:1;fill-rule:nonzero;stroke:none"
           d="M 0,0 -11.854,7.913 C -12.14,8.104 -12.523,7.899 -12.523,7.555 V -7.956 c 0,-0.238 0.193,-0.431 0.43,-0.431 h 1.148 c 0.014,0 0.029,0 0.045,0.001 2.783,0.177 8.426,1.617 11.052,7.889 C 0.228,-0.317 0.162,-0.108 0,0" />
      </g>
      <g
         transform="matrix(2.0696427,0,0,2.0696427,1242.1033,1041.0663)"
         id="g4931">
        <path
           inkscape:connector-curvature="0"
           id="path4933"
           style="fill:#9c79b5;fill-opacity:1;fill-rule:nonzero;stroke:none"
           d="m 0,0 10.341,6.903 c 1.138,0.761 1.823,2.04 1.823,3.41 v 4.791 c 0,0.515 -0.418,0.933 -0.934,0.933 H 5.101 c -3.169,0 -5.739,-2.569 -5.739,-5.738 V 0.341 C -0.638,0.014 -0.272,-0.182 0,0" />
      </g>
      <g
         transform="matrix(2.0696427,0,0,2.0696427,1241.3594,1035.6454)"
         id="g4935">
        <path
           inkscape:connector-curvature="0"
           id="path4937"
           style="fill:#9c79b5;fill-opacity:1;fill-rule:nonzero;stroke:none"
           d="m 0,0 11.886,7.935 c 0.272,0.181 0.637,-0.014 0.637,-0.341 v -15.55 c 0,-0.238 -0.193,-0.431 -0.43,-0.431 h -1.17 C 8.146,-8.216 2.48,-6.785 -0.152,-0.497 -0.228,-0.317 -0.162,-0.108 0,0" />
      </g>
      <g
         transform="matrix(1.776527,0,0,1.776527,1254.7918,959.36303)"
         id="g4939">
        <path
           inkscape:connector-curvature="0"
           id="path4941"
           style="fill:#3d2c76;fill-opacity:1;fill-rule:nonzero;stroke:none"
           d="m 0,0 c 0,0.146 -0.119,0.265 -0.266,0.265 h -3.478 v 7.247 c 0,0.138 -0.126,0.265 -0.265,0.265 h -1.617 c -0.145,0 -0.265,-0.12 -0.265,-0.265 V -1.48 c 0,-0.147 0.12,-0.266 0.265,-0.266 h 5.36 C -0.119,-1.746 0,-1.627 0,-1.48 Z" />
      </g>
      <g
         transform="matrix(1.776527,0,0,1.776527,1269.7899,972.70783)"
         id="g4943">
        <path
           inkscape:connector-curvature="0"
           id="path4945"
           style="fill:#3d2c76;fill-opacity:1;fill-rule:nonzero;stroke:none"
           d="M 0,0 C 0,0.146 -0.119,0.266 -0.266,0.266 H -6.803 C -6.949,0.266 -7.067,0.146 -7.067,0 v -1.48 c 0,-0.147 0.118,-0.266 0.264,-0.266 h 2.189 v -7.246 c 0,-0.14 0.127,-0.266 0.265,-0.266 h 1.63 c 0.139,0 0.265,0.126 0.265,0.266 v 7.246 h 2.188 C -0.119,-1.746 0,-1.627 0,-1.48 Z" />
      </g>
      <g
         transform="matrix(1.776527,0,0,1.776527,1286.7067,956.26104)"
         id="g4947">
        <path
           inkscape:connector-curvature="0"
           id="path4949"
           style="fill:#3d2c76;fill-opacity:1;fill-rule:nonzero;stroke:none"
           d="m 0,0 h 1.616 c 0.139,0 0.266,0.126 0.266,0.266 v 8.992 c 0,0.138 -0.127,0.265 -0.266,0.265 L 0,9.523 c -0.146,0 -0.266,-0.12 -0.266,-0.265 V 5.842 h -3.871 v 3.416 c 0,0.145 -0.118,0.265 -0.264,0.265 h -1.617 c -0.138,0 -0.265,-0.127 -0.265,-0.265 V 0.266 C -6.283,0.126 -6.156,0 -6.018,0 h 1.617 c 0.146,0 0.264,0.119 0.264,0.266 v 3.565 h 3.871 V 0.266 C -0.266,0.119 -0.146,0 0,0" />
      </g>
      <g
         transform="matrix(1.776527,0,0,1.776527,1230.0193,962.07807)"
         id="g4951">
        <path
           inkscape:connector-curvature="0"
           id="path4953"
           style="fill:#3d2c76;fill-opacity:1;fill-rule:nonzero;stroke:none"
           d="M 0,0 1.015,2.231 2.043,0 Z M 5.579,-2.911 1.326,6.232 C 1.283,6.319 1.183,6.384 1.09,6.384 H 0.954 C 0.86,6.384 0.761,6.318 0.716,6.229 l -4.251,-9.14 c -0.04,-0.087 -0.037,-0.178 0.009,-0.25 0.046,-0.072 0.13,-0.113 0.228,-0.113 h 1.494 c 0.228,0 0.408,0.119 0.494,0.328 l 0.489,1.084 h 3.685 l 0.489,-1.07 c 0.124,-0.262 0.236,-0.342 0.481,-0.342 h 1.508 c 0.098,0 0.181,0.041 0.228,0.113 0.045,0.071 0.049,0.163 0.009,0.25" />
      </g>
      <g
         transform="matrix(1.776527,0,0,1.776527,1219.4156,972.70783)"
         id="g4955">
        <path
           inkscape:connector-curvature="0"
           id="path4957"
           style="fill:#3d2c76;fill-opacity:1;fill-rule:nonzero;stroke:none"
           d="M 0,0 C 0,0.146 -0.119,0.266 -0.266,0.266 H -5.89 C -6.035,0.266 -6.154,0.146 -6.154,0 v -8.992 c 0,-0.147 0.119,-0.266 0.264,-0.266 h 5.624 c 0.147,0 0.266,0.119 0.266,0.266 v 1.48 c 0,0.146 -0.119,0.265 -0.266,0.265 h -3.755 v 1.82 h 3.09 c 0.147,0 0.265,0.118 0.265,0.265 v 1.48 c 0,0.139 -0.126,0.266 -0.265,0.266 h -3.09 v 1.67 h 3.755 C -0.119,-1.746 0,-1.627 0,-1.48 Z" />
      </g>
      <g
         transform="matrix(1.776527,0,0,1.776527,1199.0204,956.26104)"
         id="g4959">
        <path
           inkscape:connector-curvature="0"
           id="path4961"
           style="fill:#3d2c76;fill-opacity:1;fill-rule:nonzero;stroke:none"
           d="m 0,0 h 1.616 c 0.14,0 0.266,0.126 0.266,0.266 v 8.992 c 0,0.138 -0.126,0.265 -0.266,0.265 L 0,9.523 c -0.146,0 -0.265,-0.12 -0.265,-0.265 V 5.842 h -3.871 v 3.416 c 0,0.145 -0.119,0.265 -0.265,0.265 h -1.617 c -0.138,0 -0.264,-0.127 -0.264,-0.265 V 0.266 C -6.282,0.126 -6.156,0 -6.018,0 h 1.617 c 0.146,0 0.265,0.119 0.265,0.266 v 3.565 h 3.871 V 0.266 C -0.265,0.119 -0.146,0 0,0" />
      </g>
      <g
         transform="matrix(1.776527,0,0,1.776527,1170.9678,986.84469)"
         id="g4963">
        <path
           inkscape:connector-curvature="0"
           id="path4965"
           style="fill:#3d2c76;fill-opacity:1;fill-rule:nonzero;stroke:none"
           d="m 0,0 c -1.836,0 -3.33,1.494 -3.33,3.33 0,1.856 1.494,3.364 3.33,3.364 1.846,0 3.348,-1.508 3.348,-3.364 C 3.348,1.494 1.846,0 0,0 m 0,9.845 c -3.573,0 -6.479,-2.923 -6.479,-6.515 0,-3.634 2.845,-6.48 6.479,-6.48 3.644,0 6.498,2.846 6.498,6.48 0,3.592 -2.915,6.515 -6.498,6.515" />
      </g>
      <g
         transform="matrix(1.776527,0,0,1.776527,1192.2116,990.36824)"
         id="g4967">
        <path
           inkscape:connector-curvature="0"
           id="path4969"
           style="fill:#3d2c76;fill-opacity:1;fill-rule:nonzero;stroke:none"
           d="m 0,0 h 3.989 v -4.455 c 0,-0.277 0.226,-0.502 0.503,-0.502 h 2.092 c 0.268,0 0.503,0.234 0.503,0.502 V 7.183 c 0,0.268 -0.235,0.503 -0.503,0.503 H 4.492 C 4.215,7.686 3.989,7.46 3.989,7.183 V 2.922 H 0 V 7.183 C 0,7.46 -0.226,7.686 -0.503,7.686 h -2.093 c -0.267,0 -0.503,-0.235 -0.503,-0.503 V -4.455 c 0,-0.268 0.236,-0.502 0.503,-0.502 h 2.093 c 0.277,0 0.503,0.225 0.503,0.502 z" />
      </g>
      <g
         transform="matrix(1.776527,0,0,1.776527,1273.2932,1004.0219)"
         id="g4971">
        <path
           inkscape:connector-curvature="0"
           id="path4973"
           style="fill:#3d2c76;fill-opacity:1;fill-rule:nonzero;stroke:none"
           d="m 0,0 c -0.268,0 -0.503,-0.234 -0.503,-0.503 v -7.26 c 0,-2.788 2.315,-5.056 5.161,-5.056 2.866,0 5.197,2.268 5.197,5.056 v 7.26 C 9.855,-0.234 9.62,0 9.353,0 H 7.19 C 6.913,0 6.687,-0.226 6.687,-0.503 v -7.119 c 0,-1.167 -0.872,-2.047 -2.029,-2.047 -1.136,0 -1.993,0.88 -1.993,2.047 v 7.119 C 2.665,-0.226 2.439,0 2.162,0 Z" />
      </g>
      <g
         transform="matrix(1.776527,0,0,1.776527,1297.0718,1004.0219)"
         id="g4975">
        <path
           inkscape:connector-curvature="0"
           id="path4977"
           style="fill:#3d2c76;fill-opacity:1;fill-rule:nonzero;stroke:none"
           d="m 0,0 c -0.268,0 -0.503,-0.234 -0.503,-0.503 v -11.638 c 0,-0.267 0.235,-0.502 0.503,-0.502 h 2.109 c 0.268,0 0.503,0.235 0.503,0.502 V -0.503 C 2.612,-0.234 2.377,0 2.109,0 Z" />
      </g>
      <g
         transform="matrix(1.776527,0,0,1.776527,1317.0594,994.68474)"
         id="g4979">
        <path
           inkscape:connector-curvature="0"
           id="path4981"
           style="fill:#3d2c76;fill-opacity:1;fill-rule:nonzero;stroke:none"
           d="M 0,0 H -2.433 V 2.404 H 0 C 0.633,2.404 1.168,1.87 1.168,1.237 1.168,0.578 0.622,0 0,0 m -2.433,-2.57 h 0.941 l 0.008,-0.016 2.283,-4.55 C 0.858,-7.257 1.02,-7.387 1.23,-7.387 h 2.338 c 0.194,0 0.356,0.087 0.446,0.239 0.091,0.153 0.092,0.352 0.002,0.519 l -2.321,4.303 0.029,0.013 c 1.546,0.699 2.505,2.08 2.505,3.603 0,2.187 -1.793,3.966 -4,3.966 H -5.027 C -5.305,5.256 -5.53,5.03 -5.53,4.753 V -6.885 c 0,-0.277 0.225,-0.502 0.503,-0.502 h 2.091 c 0.268,0 0.503,0.235 0.503,0.502 z" />
      </g>
      <g
         transform="matrix(1.776527,0,0,1.776527,1261.3399,993.32636)"
         id="g4983">
        <path
           inkscape:connector-curvature="0"
           id="path4985"
           style="fill:#3d2c76;fill-opacity:1;fill-rule:nonzero;stroke:none"
           d="m 0,0 0.129,-6.12 c 0.007,-0.277 0.24,-0.502 0.519,-0.502 h 2.116 c 0.14,0 0.273,0.055 0.372,0.154 0.096,0.098 0.149,0.228 0.147,0.364 L 3.176,5.595 C 3.173,5.876 2.939,6.104 2.655,6.104 H 1.841 C 1.697,6.104 1.566,6.037 1.417,5.888 l -4.749,-4.503 -0.02,0.018 -4.852,4.49 c -0.151,0.146 -0.28,0.211 -0.421,0.211 h -0.798 c -0.283,0 -0.516,-0.228 -0.519,-0.509 l -0.109,-11.699 c -10e-4,-0.137 0.052,-0.266 0.15,-0.364 0.098,-0.099 0.23,-0.154 0.371,-0.154 h 2.114 c 0.281,0 0.515,0.226 0.52,0.505 l 0.104,6.131 0.047,-0.042 2.81,-2.494 c 0.104,-0.091 0.261,-0.211 0.421,-0.211 h 0.261 c 0.169,0 0.327,0.132 0.422,0.212 z" />
      </g>
      <g
         transform="matrix(1.776527,0,0,1.776527,1215.9153,992.86662)"
         id="g4987">
        <path
           inkscape:connector-curvature="0"
           id="path4989"
           style="fill:#3d2c76;fill-opacity:1;fill-rule:nonzero;stroke:none"
           d="M 0,0 0.049,-0.048 6.674,-6.402 C 6.745,-6.474 6.93,-6.54 7.021,-6.54 h 0.282 c 0.272,0 0.503,0.223 0.503,0.485 V 5.776 c 0,0.269 -0.236,0.503 -0.503,0.503 H 5.193 C 4.916,6.279 4.69,6.054 4.69,5.776 v -5.86 l -0.048,0.047 -6.625,6.354 c -0.072,0.072 -0.256,0.138 -0.348,0.138 h -0.281 c -0.273,0 -0.503,-0.223 -0.503,-0.485 V -5.861 c 0,-0.268 0.234,-0.503 0.503,-0.503 h 2.109 c 0.277,0 0.503,0.225 0.503,0.503 z" />
      </g>
      <g
         transform="matrix(1.776527,0,0,1.776527,1146.1052,987.17439)"
         id="g4991">
        <path
           inkscape:connector-curvature="0"
           id="path4993"
           style="fill:#3d2c76;fill-opacity:1;fill-rule:nonzero;stroke:none"
           d="m 0,0 c -0.125,0 -0.255,-0.049 -0.366,-0.147 l -1.205,-1.188 c -0.158,-0.184 -0.172,-0.441 -0.036,-0.657 0.701,-0.865 1.696,-1.344 2.801,-1.344 2.326,0 3.949,1.653 3.949,4.02 V 8.98 c 0,0.278 -0.226,0.503 -0.503,0.503 H 2.495 C 2.218,9.483 1.993,9.258 1.993,8.98 V 0.701 c 0,-0.759 -0.448,-1.168 -0.869,-1.168 -0.424,0 -0.59,0.133 -0.777,0.32 C 0.249,-0.049 0.126,0 0,0" />
      </g>
    </g>
  </g>
  </g>
</svg>